{"glyphs":{"0":{"ha":1984,"x_min":0,"x_max":1786,"o":"m 595 397 l 893 595 l 1190 595 l 893 397 l 595 397 m 198 694 l 198 397 l 0 397 l 0 794 l 198 992 l 1587 992 l 1786 794 l 298 794 l 198 694 m 1587 298 l 1587 595 l 1786 595 l 1786 198 l 1587 0 l 198 0 l 0 198 l 1488 198 l 1587 298 z "},"1":{"ha":1984,"x_min":0,"x_max":1786,"o":"m 992 992 l 992 794 l 595 794 l 794 992 l 992 992 m 1786 198 l 1587 0 l 198 0 l 0 198 l 794 198 l 794 595 l 992 595 l 992 198 l 1786 198 z "},"2":{"ha":1984,"x_min":0,"x_max":1786,"o":"m 1587 405 l 397 206 l 1786 206 l 1587 8 l 198 8 l 0 206 l 0 355 l 1389 603 l 1786 603 l 1587 405 m 1786 802 l 0 802 l 198 1000 l 1587 1000 l 1786 802 z "},"3":{"ha":1984,"x_min":0,"x_max":1786,"o":"m 794 595 l 1786 595 l 1786 397 l 794 397 l 794 595 m 1786 198 l 1587 0 l 198 0 l 0 198 l 1786 198 m 0 794 l 198 992 l 1587 992 l 1786 794 l 0 794 z "},"4":{"ha":1984,"x_min":0,"x_max":1786,"o":"m 1587 992 l 1786 794 l 1587 794 l 1587 992 m 0 794 l 198 992 l 198 794 l 0 794 m 198 397 l 0 595 l 1786 595 l 1786 397 l 1786 198 l 1587 0 l 1587 397 l 198 397 z "},"5":{"ha":1984,"x_min":0,"x_max":1786,"o":"m 0 794 l 198 992 l 1587 992 l 1786 794 l 0 794 m 1786 595 l 1786 198 l 1587 0 l 198 0 l 0 198 l 1488 198 l 1587 298 l 1587 397 l 198 397 l 0 595 l 1786 595 z "},"6":{"ha":1984,"x_min":0,"x_max":1786,"o":"m 1786 206 l 1587 8 l 198 8 l 0 206 l 1786 206 m 0 405 l 0 802 l 198 1000 l 1587 1000 l 1786 802 l 298 802 l 198 702 l 198 603 l 1587 603 l 1786 405 l 0 405 z "},"7":{"ha":1984,"x_min":0,"x_max":1786,"o":"m 1786 794 l 0 794 l 198 992 l 1587 992 l 1786 794 m 1786 198 l 1587 0 l 1587 595 l 1786 595 l 1786 198 z "},"8":{"ha":1984,"x_min":0,"x_max":1786,"o":"m 1488 198 l 1587 298 l 1488 397 l 298 397 l 198 298 l 298 198 l 1488 198 m 0 794 l 198 992 l 1587 992 l 1786 794 l 0 794 m 0 595 l 1786 595 l 1687 496 l 1786 397 l 1786 198 l 1587 0 l 198 0 l 0 198 l 0 397 l 99 496 l 0 595 z "},"9":{"ha":1984,"x_min":0,"x_max":1786,"o":"m 0 794 l 198 992 l 1587 992 l 1786 794 l 0 794 m 1786 595 l 1786 198 l 1587 0 l 198 0 l 0 198 l 1488 198 l 1587 298 l 1587 397 l 198 397 l 0 595 l 1786 595 z "}," ":{"ha":1984,"x_min":0,"x_max":0,"o":""},"!":{"ha":1984,"x_min":0,"x_max":1786,"o":"m 992 0 l 794 0 l 794 198 l 992 198 l 992 0 m 1786 794 l 992 794 l 992 397 l 794 397 l 794 794 l 0 794 l 198 992 l 1587 992 l 1786 794 z "},"\"":{"ha":1984,"x_min":397,"x_max":992,"o":"m 794 992 l 992 992 l 992 794 l 794 595 l 794 992 m 397 992 l 595 992 l 595 794 l 397 595 l 397 992 z "},"#":{"ha":1984,"x_min":198,"x_max":1587,"o":"m 595 0 l 595 198 l 198 198 l 198 397 l 1587 397 l 1587 198 l 1190 198 l 1190 0 l 992 0 l 992 198 l 794 198 l 794 0 l 595 0 m 595 992 l 794 992 l 794 794 l 992 794 l 992 992 l 1190 992 l 1190 794 l 1587 794 l 1587 595 l 198 595 l 198 794 l 595 794 l 595 992 z "},"$":{"ha":1984,"x_min":0,"x_max":1786,"o":"m 0 794 l 198 992 l 1587 992 l 1786 794 l 0 794 m 595 694 l 794 694 l 794 595 l 992 595 l 992 694 l 1190 694 l 1190 595 l 1587 595 l 1786 397 l 1786 198 l 1587 0 l 198 0 l 0 198 l 1488 198 l 1587 298 l 1488 397 l 1190 397 l 1190 298 l 992 298 l 992 397 l 794 397 l 794 298 l 595 298 l 595 397 l 198 397 l 0 595 l 595 595 l 595 694 z "},"&":{"ha":1984,"x_min":0,"x_max":1786,"o":"m 0 794 l 198 992 l 1587 992 l 1786 794 l 0 794 m 1786 198 l 1587 0 l 992 0 l 794 0 l 198 0 l 0 198 l 0 595 l 198 595 l 794 595 l 992 595 l 1587 595 l 1587 397 l 992 397 l 992 198 l 1786 198 m 794 198 l 794 397 l 198 397 l 198 298 l 298 198 l 794 198 z "},"'":{"ha":1984,"x_min":397,"x_max":595,"o":"m 397 992 l 595 992 l 595 794 l 397 595 l 397 992 z "},"(":{"ha":1984,"x_min":397,"x_max":1786,"o":"m 595 298 l 694 198 l 1786 198 l 1587 0 l 595 0 l 397 198 l 397 595 l 595 595 l 595 298 m 397 794 l 595 992 l 1587 992 l 1786 794 l 397 794 z "},")":{"ha":1984,"x_min":0,"x_max":1389,"o":"m 1190 298 l 1190 595 l 1389 595 l 1389 198 l 1190 0 l 198 0 l 0 198 l 1091 198 l 1190 298 m 0 794 l 198 992 l 1190 992 l 1389 794 l 0 794 z "},"*":{"ha":1984,"x_min":595,"x_max":1190,"o":"m 794 794 l 595 992 l 1190 992 l 992 794 l 794 794 m 794 595 l 992 595 l 1190 397 l 595 397 l 794 595 z "},"+":{"ha":1984,"x_min":198,"x_max":1587,"o":"m 794 992 l 992 992 l 992 595 l 1587 595 l 1587 397 l 992 397 l 992 0 l 794 0 l 794 397 l 198 397 l 198 595 l 794 595 l 794 992 z "},",":{"ha":1984,"x_min":397,"x_max":595,"o":"m 397 397 l 595 397 l 595 198 l 397 0 l 397 397 z "},"-":{"ha":1984,"x_min":198,"x_max":1587,"o":"m 198 595 l 1587 595 l 1587 397 l 198 397 l 198 595 z "},".":{"ha":1984,"x_min":397,"x_max":595,"o":"m 397 397 l 595 397 l 595 198 l 397 198 l 397 397 z "},"/":{"ha":1984,"x_min":397,"x_max":1389,"o":"m 397 0 l 397 248 l 1389 992 l 1389 744 l 397 0 z "},":":{"ha":1984,"x_min":397,"x_max":595,"o":"m 397 397 l 595 397 l 595 198 l 397 198 l 397 397 m 397 794 l 595 794 l 595 595 l 397 595 l 397 794 z "},";":{"ha":1984,"x_min":397,"x_max":595,"o":"m 397 397 l 595 397 l 595 198 l 397 0 l 397 397 m 397 794 l 595 794 l 595 595 l 397 595 l 397 794 z "},"<":{"ha":1984,"x_min":397,"x_max":1786,"o":"m 595 496 l 893 198 l 1786 198 l 1587 0 l 794 0 l 397 397 l 397 595 l 595 595 l 595 496 m 595 794 l 794 992 l 1587 992 l 1786 794 l 595 794 z "},"=":{"ha":1984,"x_min":198,"x_max":1587,"o":"m 198 397 l 1587 397 l 1587 198 l 198 198 l 198 397 m 198 794 l 1587 794 l 1587 595 l 198 595 l 198 794 z "},">":{"ha":1984,"x_min":198,"x_max":1587,"o":"m 1389 496 l 1389 595 l 1587 595 l 1587 397 l 1190 0 l 397 0 l 198 198 l 1091 198 l 1389 496 m 1389 794 l 198 794 l 397 992 l 1190 992 l 1389 794 z "},"?":{"ha":1984,"x_min":0,"x_max":1786,"o":"m 992 0 l 794 0 l 794 198 l 992 198 l 992 0 m 794 397 l 992 595 l 1488 595 l 1587 694 l 1488 794 l 0 794 l 198 992 l 1587 992 l 1786 794 l 1786 595 l 1587 397 l 794 397 z "},"A":{"ha":1984,"x_min":0,"x_max":1786,"o":"m 0 794 l 198 992 l 1587 992 l 1786 794 l 0 794 m 198 0 l 0 198 l 0 595 l 1786 595 l 1786 198 l 1587 0 l 1587 397 l 198 397 l 198 0 z "},"B":{"ha":1984,"x_min":0,"x_max":1786,"o":"m 198 298 l 298 198 l 1488 198 l 1587 298 l 1488 397 l 198 397 l 198 298 m 0 794 l 198 992 l 1587 992 l 1786 794 l 0 794 m 0 595 l 1587 595 l 1786 397 l 1786 198 l 1587 0 l 198 0 l 0 198 l 0 595 z "},"C":{"ha":1984,"x_min":0,"x_max":1786,"o":"m 198 298 l 298 198 l 1786 198 l 1587 0 l 198 0 l 0 198 l 0 595 l 198 595 l 198 298 m 0 794 l 198 992 l 1587 992 l 1786 794 l 0 794 z "},"D":{"ha":1984,"x_min":0,"x_max":1786,"o":"m 1587 298 l 1587 595 l 1786 595 l 1786 198 l 1587 0 l 198 0 l 0 198 l 1488 198 l 1587 298 m 0 794 l 198 992 l 1587 992 l 1786 794 l 0 794 z "},"E":{"ha":1984,"x_min":0,"x_max":1786,"o":"m 198 595 l 1587 595 l 1587 397 l 198 397 l 198 595 m 1786 198 l 1587 0 l 198 0 l 0 198 l 1786 198 m 0 794 l 198 992 l 1587 992 l 1786 794 l 0 794 z "},"F":{"ha":1984,"x_min":0,"x_max":1786,"o":"m 0 595 l 1587 595 l 1587 397 l 198 397 l 198 0 l 0 0 l 0 595 m 0 794 l 198 992 l 1587 992 l 1786 794 l 0 794 z "},"G":{"ha":1984,"x_min":0,"x_max":1786,"o":"m 1587 298 l 1587 397 l 794 397 l 794 595 l 1786 595 l 1786 198 l 1587 0 l 198 0 l 0 198 l 0 595 l 198 595 l 198 298 l 298 198 l 1488 198 l 1587 298 m 0 794 l 198 992 l 1587 992 l 1786 794 l 0 794 z "},"H":{"ha":1984,"x_min":0,"x_max":1786,"o":"m 0 794 l 198 992 l 198 794 l 0 794 m 1587 794 l 1587 992 l 1786 794 l 1587 794 m 198 0 l 0 198 l 0 595 l 1786 595 l 1786 198 l 1587 0 l 1587 397 l 198 397 l 198 0 z "},"I":{"ha":1984,"x_min":0,"x_max":1786,"o":"m 1786 198 l 1587 0 l 198 0 l 0 198 l 794 198 l 794 595 l 992 595 l 992 198 l 1786 198 m 0 794 l 198 992 l 1587 992 l 1786 794 l 0 794 z "},"J":{"ha":1984,"x_min":0,"x_max":1786,"o":"m 1587 298 l 1587 595 l 1786 595 l 1786 198 l 1587 0 l 198 0 l 0 198 l 1488 198 l 1587 298 m 1587 794 l 1587 992 l 1786 794 l 1587 794 z "},"K":{"ha":1984,"x_min":0,"x_max":1786,"o":"m 595 794 l 794 992 l 1587 992 l 1786 794 l 595 794 m 548 595 l 694 595 l 595 496 l 893 198 l 1786 198 l 1587 0 l 794 0 l 397 397 l 198 397 l 198 0 l 0 198 l 0 595 l 548 595 m 0 794 l 198 992 l 198 794 l 0 794 z "},"L":{"ha":1984,"x_min":0,"x_max":1786,"o":"m 0 198 l 1786 198 l 1587 0 l 198 0 l 0 198 m 0 794 l 198 992 l 198 397 l 0 397 l 0 794 z "},"M":{"ha":1984,"x_min":0,"x_max":1786,"o":"m 1587 0 l 1587 595 l 1786 595 l 1786 198 l 1587 0 m 0 198 l 0 595 l 198 595 l 198 0 l 0 198 m 0 794 l 198 992 l 1587 992 l 1786 794 l 992 794 l 992 397 l 794 397 l 794 794 l 0 794 z "},"N":{"ha":1984,"x_min":0,"x_max":1786,"o":"m 397 992 l 1389 248 l 1389 0 l 397 744 l 397 992 m 1587 0 l 1579 992 l 1786 794 l 1786 198 l 1587 0 m 0 198 l 0 794 l 198 992 l 198 0 l 0 198 z "},"O":{"ha":1984,"x_min":0,"x_max":1786,"o":"m 198 694 l 198 397 l 0 397 l 0 794 l 198 992 l 1587 992 l 1786 794 l 298 794 l 198 694 m 1587 298 l 1587 595 l 1786 595 l 1786 198 l 1587 0 l 198 0 l 0 198 l 1488 198 l 1587 298 z "},"P":{"ha":1984,"x_min":0,"x_max":1786,"o":"m 0 794 l 198 992 l 1587 992 l 1786 794 l 0 794 m 198 0 l 0 198 l 0 595 l 1786 595 l 1587 397 l 198 397 l 198 0 z "},"Q":{"ha":1984,"x_min":0,"x_max":1786,"o":"m 198 694 l 198 397 l 0 397 l 0 794 l 198 992 l 1587 992 l 1786 794 l 298 794 l 198 694 m 1587 347 l 1587 595 l 1786 595 l 1786 198 l 1587 0 l 198 0 l 0 198 l 1438 198 l 1339 298 l 1488 446 l 1587 347 z "},"R":{"ha":1984,"x_min":0,"x_max":1786,"o":"m 0 794 l 198 992 l 1587 992 l 1786 794 l 0 794 m 198 0 l 0 198 l 0 595 l 1786 595 l 1587 397 l 1190 397 l 1587 0 l 1329 0 l 933 397 l 198 397 l 198 0 z "},"S":{"ha":1984,"x_min":0,"x_max":1786,"o":"m 0 595 l 1587 595 l 1786 397 l 1786 198 l 1587 0 l 198 0 l 0 198 l 1488 198 l 1587 298 l 1488 397 l 198 397 l 0 595 m 0 794 l 198 992 l 1587 992 l 1786 794 l 0 794 z "},"T":{"ha":1984,"x_min":0,"x_max":1786,"o":"m 794 595 l 992 595 l 992 0 l 794 0 l 794 595 m 0 794 l 198 992 l 1587 992 l 1786 794 l 0 794 z "},"U":{"ha":1984,"x_min":0,"x_max":1786,"o":"m 198 992 l 198 397 l 0 397 l 0 794 l 198 992 m 1786 794 l 1786 397 l 1587 397 l 1587 992 l 1786 794 m 992 198 l 1786 198 l 1587 0 l 198 0 l 0 198 l 992 198 z "},"V":{"ha":1984,"x_min":0,"x_max":1786,"o":"m 198 992 l 198 794 l 0 794 l 198 992 m 1786 794 l 1587 794 l 1587 992 l 1786 794 m 1190 198 l 1587 595 l 1786 595 l 1786 496 l 1290 0 l 496 0 l 0 496 l 0 595 l 198 595 l 595 198 l 1190 198 z "},"W":{"ha":1984,"x_min":0,"x_max":1786,"o":"m 198 992 l 198 397 l 0 397 l 0 794 l 198 992 m 1786 794 l 1786 397 l 1587 397 l 1587 992 l 1786 794 m 1786 198 l 1587 0 l 198 0 l 0 198 l 794 198 l 794 595 l 992 595 l 992 198 l 1786 198 z "},"X":{"ha":1984,"x_min":0,"x_max":1786,"o":"m 1091 794 l 1290 992 l 1587 992 l 1786 794 l 1091 794 m 0 794 l 198 992 l 496 992 l 694 794 l 0 794 m 893 397 l 496 0 l 198 0 l 0 198 l 397 198 l 694 496 l 595 595 l 1190 595 l 1091 496 l 1389 198 l 1786 198 l 1587 0 l 1290 0 l 893 397 z "},"Y":{"ha":1984,"x_min":0,"x_max":1786,"o":"m 1587 992 l 1786 794 l 1587 794 l 1587 992 m 0 794 l 198 992 l 198 794 l 0 794 m 198 397 l 0 595 l 1786 595 l 1587 397 l 992 397 l 992 0 l 794 0 l 794 397 l 198 397 z "},"Z":{"ha":1984,"x_min":0,"x_max":1786,"o":"m 1587 405 l 397 206 l 1786 206 l 1587 8 l 198 8 l 0 206 l 0 355 l 1389 603 l 1786 603 l 1587 405 m 1786 802 l 0 802 l 198 1000 l 1587 1000 l 1786 802 z "},"[":{"ha":1984,"x_min":397,"x_max":1786,"o":"m 595 198 l 1786 198 l 1587 0 l 397 0 l 397 595 l 595 595 l 595 198 m 397 794 l 397 992 l 1587 992 l 1786 794 l 397 794 z "},"\\":{"ha":1984,"x_min":397,"x_max":1389,"o":"m 397 992 l 1389 248 l 1389 0 l 397 744 l 397 992 z "},"]":{"ha":1984,"x_min":0,"x_max":1389,"o":"m 1190 298 l 1190 595 l 1389 595 l 1389 0 l 1190 0 l 198 0 l 0 198 l 1190 198 l 1190 298 m 0 794 l 198 992 l 1389 992 l 1389 794 l 0 794 z "},"^":{"ha":1984,"x_min":595,"x_max":1190,"o":"m 794 992 l 992 992 l 1190 794 l 595 794 l 794 992 z "},"_":{"ha":1984,"x_min":0,"x_max":1786,"o":"m 1786 198 l 1587 0 l 198 0 l 0 198 l 1786 198 z "},"`":{"ha":1984,"x_min":595,"x_max":1190,"o":"m 992 992 l 1190 794 l 794 794 l 595 992 l 992 992 z "},"a":{"ha":1984,"x_min":0,"x_max":1786,"o":"m 0 794 l 198 992 l 1587 992 l 1786 794 l 0 794 m 198 0 l 0 198 l 0 595 l 1786 595 l 1786 198 l 1587 0 l 1587 397 l 198 397 l 198 0 z "},"b":{"ha":1984,"x_min":0,"x_max":1786,"o":"m 198 298 l 298 198 l 1488 198 l 1587 298 l 1488 397 l 198 397 l 198 298 m 0 794 l 198 992 l 1587 992 l 1786 794 l 0 794 m 0 595 l 1587 595 l 1786 397 l 1786 198 l 1587 0 l 198 0 l 0 198 l 0 595 z "},"c":{"ha":1984,"x_min":0,"x_max":1786,"o":"m 198 298 l 298 198 l 1786 198 l 1587 0 l 198 0 l 0 198 l 0 595 l 198 595 l 198 298 m 0 794 l 198 992 l 1587 992 l 1786 794 l 0 794 z "},"d":{"ha":1984,"x_min":0,"x_max":1786,"o":"m 1587 298 l 1587 595 l 1786 595 l 1786 198 l 1587 0 l 198 0 l 0 198 l 1488 198 l 1587 298 m 0 794 l 198 992 l 1587 992 l 1786 794 l 0 794 z "},"e":{"ha":1984,"x_min":0,"x_max":1786,"o":"m 198 595 l 1587 595 l 1587 397 l 198 397 l 198 595 m 1786 198 l 1587 0 l 198 0 l 0 198 l 1786 198 m 0 794 l 198 992 l 1587 992 l 1786 794 l 0 794 z "},"f":{"ha":1984,"x_min":0,"x_max":1786,"o":"m 0 595 l 1587 595 l 1587 397 l 198 397 l 198 0 l 0 0 l 0 595 m 0 794 l 198 992 l 1587 992 l 1786 794 l 0 794 z "},"g":{"ha":1984,"x_min":0,"x_max":1786,"o":"m 1587 298 l 1587 397 l 794 397 l 794 595 l 1786 595 l 1786 198 l 1587 0 l 198 0 l 0 198 l 0 595 l 198 595 l 198 298 l 298 198 l 1488 198 l 1587 298 m 0 794 l 198 992 l 1587 992 l 1786 794 l 0 794 z "},"h":{"ha":1984,"x_min":0,"x_max":1786,"o":"m 0 794 l 198 992 l 198 794 l 0 794 m 1587 794 l 1587 992 l 1786 794 l 1587 794 m 198 0 l 0 198 l 0 595 l 1786 595 l 1786 198 l 1587 0 l 1587 397 l 198 397 l 198 0 z "},"i":{"ha":1984,"x_min":0,"x_max":1786,"o":"m 1786 198 l 1587 0 l 198 0 l 0 198 l 794 198 l 794 595 l 992 595 l 992 198 l 1786 198 m 0 794 l 198 992 l 1587 992 l 1786 794 l 0 794 z "},"j":{"ha":1984,"x_min":0,"x_max":1786,"o":"m 1587 298 l 1587 595 l 1786 595 l 1786 198 l 1587 0 l 198 0 l 0 198 l 1488 198 l 1587 298 m 1587 794 l 1587 992 l 1786 794 l 1587 794 z "},"k":{"ha":1984,"x_min":0,"x_max":1786,"o":"m 595 794 l 794 992 l 1587 992 l 1786 794 l 595 794 m 548 595 l 694 595 l 595 496 l 893 198 l 1786 198 l 1587 0 l 794 0 l 397 397 l 198 397 l 198 0 l 0 198 l 0 595 l 548 595 m 0 794 l 198 992 l 198 794 l 0 794 z "},"l":{"ha":1984,"x_min":0,"x_max":1786,"o":"m 0 198 l 1786 198 l 1587 0 l 198 0 l 0 198 m 0 794 l 198 992 l 198 397 l 0 397 l 0 794 z "},"m":{"ha":1984,"x_min":0,"x_max":1786,"o":"m 1587 0 l 1587 595 l 1786 595 l 1786 198 l 1587 0 m 0 198 l 0 595 l 198 595 l 198 0 l 0 198 m 0 794 l 198 992 l 1587 992 l 1786 794 l 992 794 l 992 397 l 794 397 l 794 794 l 0 794 z "},"n":{"ha":1984,"x_min":0,"x_max":1786,"o":"m 397 992 l 1389 248 l 1389 0 l 397 744 l 397 992 m 1587 0 l 1579 992 l 1786 794 l 1786 198 l 1587 0 m 0 198 l 0 794 l 198 992 l 198 0 l 0 198 z "},"o":{"ha":1984,"x_min":0,"x_max":1786,"o":"m 198 694 l 198 397 l 0 397 l 0 794 l 198 992 l 1587 992 l 1786 794 l 298 794 l 198 694 m 1587 298 l 1587 595 l 1786 595 l 1786 198 l 1587 0 l 198 0 l 0 198 l 1488 198 l 1587 298 z "},"p":{"ha":1984,"x_min":0,"x_max":1786,"o":"m 0 794 l 198 992 l 1587 992 l 1786 794 l 0 794 m 198 0 l 0 198 l 0 595 l 1786 595 l 1587 397 l 198 397 l 198 0 z "},"q":{"ha":1984,"x_min":0,"x_max":1786,"o":"m 198 694 l 198 397 l 0 397 l 0 794 l 198 992 l 1587 992 l 1786 794 l 298 794 l 198 694 m 1587 347 l 1587 595 l 1786 595 l 1786 198 l 1587 0 l 198 0 l 0 198 l 1438 198 l 1339 298 l 1488 446 l 1587 347 z "},"r":{"ha":1984,"x_min":0,"x_max":1786,"o":"m 0 794 l 198 992 l 1587 992 l 1786 794 l 0 794 m 198 0 l 0 198 l 0 595 l 1786 595 l 1587 397 l 1190 397 l 1587 0 l 1329 0 l 933 397 l 198 397 l 198 0 z "},"s":{"ha":1984,"x_min":0,"x_max":1786,"o":"m 0 595 l 1587 595 l 1786 397 l 1786 198 l 1587 0 l 198 0 l 0 198 l 1488 198 l 1587 298 l 1488 397 l 198 397 l 0 595 m 0 794 l 198 992 l 1587 992 l 1786 794 l 0 794 z "},"t":{"ha":1984,"x_min":0,"x_max":1786,"o":"m 794 595 l 992 595 l 992 0 l 794 0 l 794 595 m 0 794 l 198 992 l 1587 992 l 1786 794 l 0 794 z "},"u":{"ha":1984,"x_min":0,"x_max":1786,"o":"m 198 992 l 198 397 l 0 397 l 0 794 l 198 992 m 1786 794 l 1786 397 l 1587 397 l 1587 992 l 1786 794 m 992 198 l 1786 198 l 1587 0 l 198 0 l 0 198 l 992 198 z "},"v":{"ha":1984,"x_min":0,"x_max":1786,"o":"m 198 992 l 198 794 l 0 794 l 198 992 m 1786 794 l 1587 794 l 1587 992 l 1786 794 m 1190 198 l 1587 595 l 1786 595 l 1786 496 l 1290 0 l 496 0 l 0 496 l 0 595 l 198 595 l 595 198 l 1190 198 z "},"w":{"ha":1984,"x_min":0,"x_max":1786,"o":"m 198 992 l 198 397 l 0 397 l 0 794 l 198 992 m 1786 794 l 1786 397 l 1587 397 l 1587 992 l 1786 794 m 1786 198 l 1587 0 l 198 0 l 0 198 l 794 198 l 794 595 l 992 595 l 992 198 l 1786 198 z "},"x":{"ha":1984,"x_min":0,"x_max":1786,"o":"m 1091 794 l 1290 992 l 1587 992 l 1786 794 l 1091 794 m 0 794 l 198 992 l 496 992 l 694 794 l 0 794 m 893 397 l 496 0 l 198 0 l 0 198 l 397 198 l 694 496 l 595 595 l 1190 595 l 1091 496 l 1389 198 l 1786 198 l 1587 0 l 1290 0 l 893 397 z "},"y":{"ha":1984,"x_min":0,"x_max":1786,"o":"m 1587 992 l 1786 794 l 1587 794 l 1587 992 m 0 794 l 198 992 l 198 794 l 0 794 m 198 397 l 0 595 l 1786 595 l 1587 397 l 992 397 l 992 0 l 794 0 l 794 397 l 198 397 z "},"z":{"ha":1984,"x_min":0,"x_max":1786,"o":"m 1587 405 l 397 206 l 1786 206 l 1587 8 l 198 8 l 0 206 l 0 355 l 1389 603 l 1786 603 l 1587 405 m 1786 802 l 0 802 l 198 1000 l 1587 1000 l 1786 802 z "},"{":{"ha":1984,"x_min":298,"x_max":1786,"o":"m 595 298 l 694 198 l 1786 198 l 1587 0 l 595 0 l 397 198 l 397 397 l 298 496 l 397 595 l 595 595 l 595 298 m 397 794 l 595 992 l 1587 992 l 1786 794 l 397 794 z "},"|":{"ha":1984,"x_min":0,"x_max":1786,"o":"m 1786 794 l 992 794 l 992 595 l 794 595 l 794 794 l 0 794 l 198 992 l 1587 992 l 1786 794 m 1786 198 l 1587 0 l 198 0 l 0 198 l 794 198 l 794 397 l 992 397 l 992 198 l 1786 198 z "},"}":{"ha":1984,"x_min":0,"x_max":1488,"o":"m 1190 298 l 1190 595 l 1389 595 l 1488 496 l 1389 397 l 1389 198 l 1190 0 l 198 0 l 0 198 l 1091 198 l 1190 298 m 0 794 l 198 992 l 1190 992 l 1389 794 l 0 794 z "},"~":{"ha":1984,"x_min":595,"x_max":1190,"o":"m 595 992 l 1190 992 l 1190 794 l 595 794 l 595 992 z "},"¢":{"ha":1984,"x_min":0,"x_max":1786,"o":"m 0 794 l 198 992 l 1587 992 l 1786 794 l 992 794 l 992 698 l 794 698 l 794 794 l 0 794 m 198 298 l 298 198 l 794 198 l 794 298 l 992 298 l 992 198 l 1786 198 l 1587 0 l 198 0 l 0 198 l 0 595 l 198 595 l 198 298 z "},"£":{"ha":1984,"x_min":0,"x_max":1786,"o":"m 0 198 l 1786 198 l 1587 0 l 198 0 l 0 198 m 0 794 l 198 992 l 198 595 l 595 595 l 595 397 l 198 397 l 0 397 l 0 595 l 0 794 z "},"¥":{"ha":1984,"x_min":0,"x_max":1786,"o":"m 0 794 l 198 992 l 198 794 l 0 794 m 1587 992 l 1786 794 l 1587 794 l 1587 992 m 198 397 l 0 595 l 1786 595 l 1587 397 l 992 397 l 992 327 l 1091 327 l 1091 228 l 992 228 l 992 187 l 1091 187 l 1091 87 l 992 87 l 992 0 l 794 0 l 794 87 l 694 87 l 694 187 l 794 187 l 794 228 l 694 228 l 694 327 l 794 327 l 794 397 l 198 397 z "},"¦":{"ha":1984,"x_min":0,"x_max":1786,"o":"m 1786 794 l 992 794 l 992 595 l 794 595 l 794 794 l 0 794 l 198 992 l 1587 992 l 1786 794 m 1786 198 l 1587 0 l 198 0 l 0 198 l 794 198 l 794 397 l 992 397 l 992 198 l 1786 198 z "},"§":{"ha":1984,"x_min":0,"x_max":1786,"o":"m 661 496 l 760 397 l 1016 397 l 1115 496 l 1016 595 l 760 595 l 661 496 m 0 794 l 198 992 l 1587 992 l 1786 794 l 0 794 m 694 694 l 1091 694 l 1190 595 l 1587 595 l 1786 397 l 1786 198 l 1587 0 l 198 0 l 0 198 l 1488 198 l 1587 298 l 1488 397 l 1190 397 l 1091 298 l 694 298 l 595 397 l 198 397 l 0 595 l 595 595 l 694 694 z "},"±":{"ha":1984,"x_min":198,"x_max":1587,"o":"m 198 198 l 1587 198 l 1587 0 l 198 0 l 198 198 m 794 992 l 992 992 l 992 794 l 1587 794 l 1587 595 l 992 595 l 992 397 l 794 397 l 794 595 l 198 595 l 198 794 l 794 794 l 794 992 z "},"´":{"ha":1984,"x_min":595,"x_max":1190,"o":"m 794 992 l 1190 992 l 992 794 l 595 794 l 794 992 z "},"À":{"ha":1984,"x_min":0,"x_max":1786,"o":"m 397 992 l 595 794 l 0 794 l 198 992 l 397 992 m 992 992 l 1190 794 l 794 794 l 595 992 l 992 992 m 1786 794 l 1389 794 l 1190 992 l 1587 992 l 1786 794 m 198 0 l 0 198 l 0 595 l 1786 595 l 1786 198 l 1587 0 l 1587 397 l 198 397 l 198 0 z "},"Á":{"ha":1984,"x_min":0,"x_max":1786,"o":"m 1389 992 l 1587 992 l 1786 794 l 1190 794 l 1389 992 m 794 992 l 1190 992 l 992 794 l 595 794 l 794 992 m 0 794 l 198 992 l 595 992 l 397 794 l 0 794 m 198 0 l 0 198 l 0 595 l 1786 595 l 1786 198 l 1587 0 l 1587 397 l 198 397 l 198 0 z "},"Â":{"ha":1984,"x_min":0,"x_max":1786,"o":"m 1190 992 l 1587 992 l 1786 794 l 1389 794 l 1190 992 m 794 992 l 992 992 l 1190 794 l 595 794 l 794 992 m 0 794 l 198 992 l 595 992 l 397 794 l 0 794 m 198 0 l 0 198 l 0 595 l 1786 595 l 1786 198 l 1587 0 l 1587 397 l 198 397 l 198 0 z "},"Ã":{"ha":1984,"x_min":0,"x_max":1786,"o":"m 397 992 l 397 794 l 0 794 l 198 992 l 397 992 m 1190 992 l 1190 794 l 595 794 l 595 992 l 1190 992 m 1786 794 l 1389 794 l 1389 992 l 1587 992 l 1786 794 m 198 0 l 0 198 l 0 595 l 1786 595 l 1786 198 l 1587 0 l 1587 397 l 198 397 l 198 0 z "},"Ä":{"ha":1984,"x_min":0,"x_max":1786,"o":"m 1389 992 l 1587 992 l 1786 794 l 1389 794 l 1389 992 m 992 992 l 1190 992 l 1190 794 l 992 794 l 992 992 m 595 992 l 794 992 l 794 794 l 595 794 l 595 992 m 0 794 l 198 992 l 397 992 l 397 794 l 0 794 m 198 0 l 0 198 l 0 595 l 1786 595 l 1786 198 l 1587 0 l 1587 397 l 198 397 l 198 0 z "},"È":{"ha":1984,"x_min":0,"x_max":1786,"o":"m 198 595 l 1587 595 l 1587 397 l 198 397 l 198 595 m 1786 198 l 1587 0 l 198 0 l 0 198 l 1786 198 m 397 992 l 595 794 l 0 794 l 198 992 l 397 992 m 992 992 l 1190 794 l 794 794 l 595 992 l 992 992 m 1786 794 l 1389 794 l 1190 992 l 1587 992 l 1786 794 z "},"É":{"ha":1984,"x_min":0,"x_max":1786,"o":"m 198 595 l 1587 595 l 1587 397 l 198 397 l 198 595 m 1786 198 l 1587 0 l 198 0 l 0 198 l 1786 198 m 1389 992 l 1587 992 l 1786 794 l 1190 794 l 1389 992 m 794 992 l 1190 992 l 992 794 l 595 794 l 794 992 m 0 794 l 198 992 l 595 992 l 397 794 l 0 794 z "},"Ê":{"ha":1984,"x_min":0,"x_max":1786,"o":"m 198 595 l 1587 595 l 1587 397 l 198 397 l 198 595 m 1786 198 l 1587 0 l 198 0 l 0 198 l 1786 198 m 1190 992 l 1587 992 l 1786 794 l 1389 794 l 1190 992 m 794 992 l 992 992 l 1190 794 l 595 794 l 794 992 m 0 794 l 198 992 l 595 992 l 397 794 l 0 794 z "},"Ë":{"ha":1984,"x_min":0,"x_max":1786,"o":"m 198 595 l 1587 595 l 1587 397 l 198 397 l 198 595 m 1786 198 l 1587 0 l 198 0 l 0 198 l 1786 198 m 1389 992 l 1587 992 l 1786 794 l 1389 794 l 1389 992 m 992 992 l 1190 992 l 1190 794 l 992 794 l 992 992 m 595 992 l 794 992 l 794 794 l 595 794 l 595 992 m 0 794 l 198 992 l 397 992 l 397 794 l 0 794 z "},"Ì":{"ha":1984,"x_min":0,"x_max":1786,"o":"m 1786 198 l 1587 0 l 198 0 l 0 198 l 794 198 l 794 595 l 992 595 l 992 198 l 1786 198 m 397 992 l 595 794 l 0 794 l 198 992 l 397 992 m 992 992 l 1190 794 l 794 794 l 595 992 l 992 992 m 1786 794 l 1389 794 l 1190 992 l 1587 992 l 1786 794 z "},"Í":{"ha":1984,"x_min":0,"x_max":1786,"o":"m 1786 198 l 1587 0 l 198 0 l 0 198 l 794 198 l 794 595 l 992 595 l 992 198 l 1786 198 m 1389 992 l 1587 992 l 1786 794 l 1190 794 l 1389 992 m 794 992 l 1190 992 l 992 794 l 595 794 l 794 992 m 0 794 l 198 992 l 595 992 l 397 794 l 0 794 z "},"Î":{"ha":1984,"x_min":0,"x_max":1786,"o":"m 1786 198 l 1587 0 l 198 0 l 0 198 l 794 198 l 794 595 l 992 595 l 992 198 l 1786 198 m 1190 992 l 1587 992 l 1786 794 l 1389 794 l 1190 992 m 794 992 l 992 992 l 1190 794 l 595 794 l 794 992 m 0 794 l 198 992 l 595 992 l 397 794 l 0 794 z "},"Ï":{"ha":1984,"x_min":0,"x_max":1786,"o":"m 1786 198 l 1587 0 l 198 0 l 0 198 l 794 198 l 794 595 l 992 595 l 992 198 l 1786 198 m 1389 992 l 1587 992 l 1786 794 l 1389 794 l 1389 992 m 992 992 l 1190 992 l 1190 794 l 992 794 l 992 992 m 595 992 l 794 992 l 794 794 l 595 794 l 595 992 m 0 794 l 198 992 l 397 992 l 397 794 l 0 794 z "},"Ð":{"ha":1984,"x_min":0,"x_max":1786,"o":"m 0 595 l 595 595 l 595 397 l 0 397 l 0 595 m 1587 298 l 1587 595 l 1786 595 l 1786 198 l 1587 0 l 198 0 l 0 198 l 1488 198 l 1587 298 m 0 794 l 198 992 l 1587 992 l 1786 794 l 0 794 z "},"Ñ":{"ha":1984,"x_min":0,"x_max":1786,"o":"m 1190 992 l 1190 794 l 869 794 l 595 992 l 1190 992 m 397 992 l 1389 248 l 1389 0 l 397 744 l 397 992 m 1587 0 l 1579 992 l 1786 794 l 1786 198 l 1587 0 m 0 198 l 0 794 l 198 992 l 198 0 l 0 198 z "},"Ò":{"ha":1984,"x_min":0,"x_max":1786,"o":"m 1190 992 l 1587 992 l 1786 794 l 1389 794 l 1190 992 m 595 794 l 298 794 l 198 694 l 198 397 l 0 397 l 0 794 l 198 992 l 397 992 l 595 794 m 1587 298 l 1587 595 l 1786 595 l 1786 198 l 1587 0 l 198 0 l 0 198 l 1488 198 l 1587 298 m 992 992 l 1190 794 l 794 794 l 595 992 l 992 992 z "},"Ó":{"ha":1984,"x_min":0,"x_max":1786,"o":"m 0 815 l 0 1240 l 353 1448 l 508 1188 l 278 1052 l 278 815 l 0 815 m 1786 815 l 1508 815 l 1508 1052 l 1288 1183 l 1440 1444 l 1786 1240 l 1786 815 m 1786 619 l 1786 188 l 1450 -10 l 1306 234 l 1508 357 l 1508 619 l 1786 619 m 0 619 l 278 619 l 278 357 l 500 222 l 357 -22 l 0 188 l 0 619 m 1270 1544 l 1119 1284 l 893 1419 l 677 1290 l 522 1548 l 893 1766 l 1270 1544 m 528 -121 l 669 119 l 893 -18 l 1137 131 l 1282 -109 l 893 -337 l 528 -121 z "},"Ô":{"ha":1984,"x_min":0,"x_max":1786,"o":"m 1190 992 l 1587 992 l 1786 794 l 1389 794 l 1190 992 m 198 694 l 198 397 l 0 397 l 0 794 l 198 992 l 595 992 l 397 794 l 298 794 l 198 694 m 1587 298 l 1587 595 l 1786 595 l 1786 198 l 1587 0 l 198 0 l 0 198 l 1488 198 l 1587 298 m 198 595 m 794 992 l 992 992 l 1190 794 l 595 794 l 794 992 z "},"Õ":{"ha":1984,"x_min":0,"x_max":1786,"o":"m 1389 992 l 1587 992 l 1786 794 l 1389 794 l 1389 992 m 198 694 l 198 397 l 0 397 l 0 794 l 198 992 l 397 992 l 397 794 l 298 794 l 198 694 m 1587 298 l 1587 595 l 1786 595 l 1786 198 l 1587 0 l 198 0 l 0 198 l 1488 198 l 1587 298 m 198 595 m 595 992 l 1190 992 l 1190 794 l 595 794 l 595 992 z "},"Ö":{"ha":1984,"x_min":0,"x_max":1786,"o":"m 1389 992 l 1587 992 l 1786 794 l 1389 794 l 1389 992 m 992 992 l 1190 992 l 1190 794 l 992 794 l 992 992 m 595 992 l 794 992 l 794 794 l 595 794 l 595 992 m 198 694 l 198 397 l 0 397 l 0 794 l 198 992 l 397 992 l 397 794 l 298 794 l 198 694 m 1587 298 l 1587 595 l 1786 595 l 1786 198 l 1587 0 l 198 0 l 0 198 l 1488 198 l 1587 298 z "},"×":{"ha":1984,"x_min":397,"x_max":1389,"o":"m 397 0 l 397 248 l 728 496 l 397 744 l 397 992 l 893 619 l 1389 992 l 1389 744 l 1058 496 l 1389 248 l 1389 0 l 893 373 l 397 0 z "},"Ø":{"ha":1984,"x_min":0,"x_max":1786,"o":"m 595 397 l 893 595 l 1190 595 l 893 397 l 595 397 m 198 694 l 198 397 l 0 397 l 0 794 l 198 992 l 1587 992 l 1786 794 l 298 794 l 198 694 m 1587 298 l 1587 595 l 1786 595 l 1786 198 l 1587 0 l 198 0 l 0 198 l 1488 198 l 1587 298 z "},"Ù":{"ha":1984,"x_min":0,"x_max":1786,"o":"m 198 992 l 198 397 l 0 397 l 0 794 l 198 992 m 1786 794 l 1786 397 l 1587 397 l 1587 992 l 1786 794 m 992 198 l 1786 198 l 1587 0 l 198 0 l 0 198 l 992 198 m 397 992 m 992 992 l 1190 794 l 794 794 l 595 992 l 992 992 z "},"Ú":{"ha":1984,"x_min":0,"x_max":1786,"o":"m 198 992 l 198 397 l 0 397 l 0 794 l 198 992 m 1786 794 l 1786 397 l 1587 397 l 1587 992 l 1786 794 m 992 198 l 1786 198 l 1587 0 l 198 0 l 0 198 l 992 198 m 794 992 l 1190 992 l 992 794 l 595 794 l 794 992 z "},"Û":{"ha":1984,"x_min":0,"x_max":1786,"o":"m 198 992 l 198 397 l 0 397 l 0 794 l 198 992 m 1786 794 l 1786 397 l 1587 397 l 1587 992 l 1786 794 m 992 198 l 1786 198 l 1587 0 l 198 0 l 0 198 l 992 198 m 198 595 m 794 992 l 992 992 l 1190 794 l 595 794 l 794 992 z "},"Ü":{"ha":1984,"x_min":0,"x_max":1786,"o":"m 992 992 l 1190 992 l 1190 794 l 992 794 l 992 992 m 595 992 l 794 992 l 794 794 l 595 794 l 595 992 m 198 992 l 198 397 l 0 397 l 0 794 l 198 992 m 1786 794 l 1786 397 l 1587 397 l 1587 992 l 1786 794 m 992 198 l 1786 198 l 1587 0 l 198 0 l 0 198 l 992 198 z "},"à":{"ha":1984,"x_min":0,"x_max":1786,"o":"m 397 992 l 595 794 l 0 794 l 198 992 l 397 992 m 992 992 l 1190 794 l 794 794 l 595 992 l 992 992 m 1786 794 l 1389 794 l 1190 992 l 1587 992 l 1786 794 m 198 0 l 0 198 l 0 595 l 1786 595 l 1786 198 l 1587 0 l 1587 397 l 198 397 l 198 0 z "},"á":{"ha":1984,"x_min":0,"x_max":1786,"o":"m 1389 992 l 1587 992 l 1786 794 l 1190 794 l 1389 992 m 794 992 l 1190 992 l 992 794 l 595 794 l 794 992 m 0 794 l 198 992 l 595 992 l 397 794 l 0 794 m 198 0 l 0 198 l 0 595 l 1786 595 l 1786 198 l 1587 0 l 1587 397 l 198 397 l 198 0 z "},"â":{"ha":1984,"x_min":0,"x_max":1786,"o":"m 1190 992 l 1587 992 l 1786 794 l 1389 794 l 1190 992 m 794 992 l 992 992 l 1190 794 l 595 794 l 794 992 m 0 794 l 198 992 l 595 992 l 397 794 l 0 794 m 198 0 l 0 198 l 0 595 l 1786 595 l 1786 198 l 1587 0 l 1587 397 l 198 397 l 198 0 z "},"ã":{"ha":1984,"x_min":0,"x_max":1786,"o":"m 397 992 l 397 794 l 0 794 l 198 992 l 397 992 m 1190 992 l 1190 794 l 595 794 l 595 992 l 1190 992 m 1786 794 l 1389 794 l 1389 992 l 1587 992 l 1786 794 m 198 0 l 0 198 l 0 595 l 1786 595 l 1786 198 l 1587 0 l 1587 397 l 198 397 l 198 0 z "},"ä":{"ha":1984,"x_min":0,"x_max":1786,"o":"m 1389 992 l 1587 992 l 1786 794 l 1389 794 l 1389 992 m 992 992 l 1190 992 l 1190 794 l 992 794 l 992 992 m 595 992 l 794 992 l 794 794 l 595 794 l 595 992 m 0 794 l 198 992 l 397 992 l 397 794 l 0 794 m 198 0 l 0 198 l 0 595 l 1786 595 l 1786 198 l 1587 0 l 1587 397 l 198 397 l 198 0 z "},"è":{"ha":1984,"x_min":0,"x_max":1786,"o":"m 198 595 l 1587 595 l 1587 397 l 198 397 l 198 595 m 1786 198 l 1587 0 l 198 0 l 0 198 l 1786 198 m 397 992 l 595 794 l 0 794 l 198 992 l 397 992 m 992 992 l 1190 794 l 794 794 l 595 992 l 992 992 m 1786 794 l 1389 794 l 1190 992 l 1587 992 l 1786 794 z "},"é":{"ha":1984,"x_min":0,"x_max":1786,"o":"m 198 595 l 1587 595 l 1587 397 l 198 397 l 198 595 m 1786 198 l 1587 0 l 198 0 l 0 198 l 1786 198 m 1389 992 l 1587 992 l 1786 794 l 1190 794 l 1389 992 m 794 992 l 1190 992 l 992 794 l 595 794 l 794 992 m 0 794 l 198 992 l 595 992 l 397 794 l 0 794 z "},"ê":{"ha":1984,"x_min":0,"x_max":1786,"o":"m 198 595 l 1587 595 l 1587 397 l 198 397 l 198 595 m 1786 198 l 1587 0 l 198 0 l 0 198 l 1786 198 m 1190 992 l 1587 992 l 1786 794 l 1389 794 l 1190 992 m 794 992 l 992 992 l 1190 794 l 595 794 l 794 992 m 0 794 l 198 992 l 595 992 l 397 794 l 0 794 z "},"ë":{"ha":1984,"x_min":0,"x_max":1786,"o":"m 198 595 l 1587 595 l 1587 397 l 198 397 l 198 595 m 1786 198 l 1587 0 l 198 0 l 0 198 l 1786 198 m 1389 992 l 1587 992 l 1786 794 l 1389 794 l 1389 992 m 992 992 l 1190 992 l 1190 794 l 992 794 l 992 992 m 595 992 l 794 992 l 794 794 l 595 794 l 595 992 m 0 794 l 198 992 l 397 992 l 397 794 l 0 794 z "},"ì":{"ha":1984,"x_min":0,"x_max":1786,"o":"m 1786 198 l 1587 0 l 198 0 l 0 198 l 794 198 l 794 595 l 992 595 l 992 198 l 1786 198 m 397 992 l 595 794 l 0 794 l 198 992 l 397 992 m 992 992 l 1190 794 l 794 794 l 595 992 l 992 992 m 1786 794 l 1389 794 l 1190 992 l 1587 992 l 1786 794 z "},"í":{"ha":1984,"x_min":0,"x_max":1786,"o":"m 1786 198 l 1587 0 l 198 0 l 0 198 l 794 198 l 794 595 l 992 595 l 992 198 l 1786 198 m 1389 992 l 1587 992 l 1786 794 l 1190 794 l 1389 992 m 794 992 l 1190 992 l 992 794 l 595 794 l 794 992 m 0 794 l 198 992 l 595 992 l 397 794 l 0 794 z "},"î":{"ha":1984,"x_min":0,"x_max":1786,"o":"m 1786 198 l 1587 0 l 198 0 l 0 198 l 794 198 l 794 595 l 992 595 l 992 198 l 1786 198 m 1190 992 l 1587 992 l 1786 794 l 1389 794 l 1190 992 m 794 992 l 992 992 l 1190 794 l 595 794 l 794 992 m 0 794 l 198 992 l 595 992 l 397 794 l 0 794 z "},"ï":{"ha":1984,"x_min":0,"x_max":1786,"o":"m 1786 198 l 1587 0 l 198 0 l 0 198 l 794 198 l 794 595 l 992 595 l 992 198 l 1786 198 m 1389 992 l 1587 992 l 1786 794 l 1389 794 l 1389 992 m 992 992 l 1190 992 l 1190 794 l 992 794 l 992 992 m 595 992 l 794 992 l 794 794 l 595 794 l 595 992 m 0 794 l 198 992 l 397 992 l 397 794 l 0 794 z "},"ñ":{"ha":1984,"x_min":0,"x_max":1786,"o":"m 1190 992 l 1190 794 l 869 794 l 595 992 l 1190 992 m 397 992 l 1389 248 l 1389 0 l 397 744 l 397 992 m 1587 0 l 1579 992 l 1786 794 l 1786 198 l 1587 0 m 0 198 l 0 794 l 198 992 l 198 0 l 0 198 z "},"ò":{"ha":1984,"x_min":0,"x_max":1786,"o":"m 1190 992 l 1587 992 l 1786 794 l 1389 794 l 1190 992 m 198 694 l 198 397 l 0 397 l 0 794 l 198 992 l 397 992 l 595 794 l 298 794 l 198 694 m 1587 298 l 1587 595 l 1786 595 l 1786 198 l 1587 0 l 198 0 l 0 198 l 1488 198 l 1587 298 m 992 992 l 1190 794 l 794 794 l 595 992 l 992 992 z "},"ó":{"ha":1984,"x_min":0,"x_max":1786,"o":"m 1389 992 l 1587 992 l 1786 794 l 1190 794 l 1389 992 m 198 694 l 198 397 l 0 397 l 0 794 l 198 992 l 595 992 l 397 794 l 298 794 l 198 694 m 1587 298 l 1587 595 l 1786 595 l 1786 198 l 1587 0 l 198 0 l 0 198 l 1488 198 l 1587 298 m 794 992 l 1190 992 l 992 794 l 595 794 l 794 992 z "},"ô":{"ha":1984,"x_min":0,"x_max":1786,"o":"m 1190 992 l 1587 992 l 1786 794 l 1389 794 l 1190 992 m 198 694 l 198 397 l 0 397 l 0 794 l 198 992 l 595 992 l 397 794 l 298 794 l 198 694 m 1587 298 l 1587 595 l 1786 595 l 1786 198 l 1587 0 l 198 0 l 0 198 l 1488 198 l 1587 298 m 198 595 m 794 992 l 992 992 l 1190 794 l 595 794 l 794 992 z "},"õ":{"ha":1984,"x_min":0,"x_max":1786,"o":"m 1389 992 l 1587 992 l 1786 794 l 1389 794 l 1389 992 m 198 694 l 198 397 l 0 397 l 0 794 l 198 992 l 397 992 l 397 794 l 298 794 l 198 694 m 1587 298 l 1587 595 l 1786 595 l 1786 198 l 1587 0 l 198 0 l 0 198 l 1488 198 l 1587 298 m 198 595 m 595 992 l 1190 992 l 1190 794 l 595 794 l 595 992 z "},"ö":{"ha":1984,"x_min":0,"x_max":1786,"o":"m 1389 992 l 1587 992 l 1786 794 l 1389 794 l 1389 992 m 992 992 l 1190 992 l 1190 794 l 992 794 l 992 992 m 595 992 l 794 992 l 794 794 l 595 794 l 595 992 m 198 694 l 198 397 l 0 397 l 0 794 l 198 992 l 397 992 l 397 794 l 298 794 l 198 694 m 1587 298 l 1587 595 l 1786 595 l 1786 198 l 1587 0 l 198 0 l 0 198 l 1488 198 l 1587 298 z "},"÷":{"ha":1984,"x_min":198,"x_max":1587,"o":"m 198 595 l 1587 595 l 1587 397 l 198 397 l 198 595 m 794 198 l 992 198 l 992 0 l 794 0 l 794 198 m 794 992 l 992 992 l 992 794 l 794 794 l 794 992 z "},"ø":{"ha":1984,"x_min":0,"x_max":1786,"o":"m 595 397 l 893 595 l 1190 595 l 893 397 l 595 397 m 198 694 l 198 397 l 0 397 l 0 794 l 198 992 l 1587 992 l 1786 794 l 298 794 l 198 694 m 1587 298 l 1587 595 l 1786 595 l 1786 198 l 1587 0 l 198 0 l 0 198 l 1488 198 l 1587 298 z "},"ù":{"ha":1984,"x_min":0,"x_max":1786,"o":"m 198 992 l 198 397 l 0 397 l 0 794 l 198 992 m 1786 794 l 1786 397 l 1587 397 l 1587 992 l 1786 794 m 992 198 l 1786 198 l 1587 0 l 198 0 l 0 198 l 992 198 m 992 992 l 1190 794 l 794 794 l 595 992 l 992 992 z "},"ú":{"ha":1984,"x_min":0,"x_max":1786,"o":"m 198 992 l 198 397 l 0 397 l 0 794 l 198 992 m 1786 794 l 1786 397 l 1587 397 l 1587 992 l 1786 794 m 992 198 l 1786 198 l 1587 0 l 198 0 l 0 198 l 992 198 m 794 992 l 1190 992 l 992 794 l 595 794 l 794 992 z "},"û":{"ha":1984,"x_min":0,"x_max":1786,"o":"m 198 992 l 198 397 l 0 397 l 0 794 l 198 992 m 1786 794 l 1786 397 l 1587 397 l 1587 992 l 1786 794 m 992 198 l 1786 198 l 1587 0 l 198 0 l 0 198 l 992 198 m 198 595 m 794 992 l 992 992 l 1190 794 l 595 794 l 794 992 z "},"ü":{"ha":1984,"x_min":0,"x_max":1786,"o":"m 992 992 l 1190 992 l 1190 794 l 992 794 l 992 992 m 595 992 l 794 992 l 794 794 l 595 794 l 595 992 m 198 992 l 198 397 l 0 397 l 0 794 l 198 992 m 1786 794 l 1786 397 l 1587 397 l 1587 992 l 1786 794 m 992 198 l 1786 198 l 1587 0 l 198 0 l 0 198 l 992 198 z "},"ý":{"ha":1984,"x_min":0,"x_max":1786,"o":"m 1587 992 l 1786 794 l 1587 794 l 1587 992 m 0 794 l 198 992 l 198 794 l 0 794 m 198 397 l 0 595 l 1786 595 l 1587 397 l 992 397 l 992 0 l 794 0 l 794 397 l 198 397 m 794 992 l 1190 992 l 992 794 l 595 794 l 794 992 z "},"ÿ":{"ha":1984,"x_min":0,"x_max":1786,"o":"m 1587 992 l 1786 794 l 1587 794 l 1587 992 m 0 794 l 198 992 l 198 794 l 0 794 m 198 397 l 0 595 l 1786 595 l 1587 397 l 992 397 l 992 0 l 794 0 l 794 397 l 198 397 m 992 992 l 1190 992 l 1190 794 l 992 794 l 992 992 m 595 992 l 794 992 l 794 794 l 595 794 l 595 992 z "}}}
